<svg xmlns="http://www.w3.org/2000/svg" xmlns:xlink="http://www.w3.org/1999/xlink" viewBox="0 0 50 50"><defs><style>.cls-1{fill:url(#radial-gradient);}.cls-2{fill:#fff;}.cls-3{fill:#8d0e1b;}.cls-4{fill:none;stroke:#be1e2d;stroke-miterlimit:10;stroke-width:0.15px;}</style><radialGradient id="radial-gradient" cx="25.53" cy="24.62" r="22.43" gradientUnits="userSpaceOnUse"><stop offset="0.32" stop-color="#ed1c24"/><stop offset="1" stop-color="#8d2834"/></radialGradient></defs><g id="Rooster"><circle class="cls-1" cx="25.53" cy="24.62" r="22.43"/><path class="cls-2" d="M28.49,40.52c-.09.06,1.58,1.52,1.18,1.36s-.44.11-.73,0c-.77-.38-.71-1.5-1.16-1.55-.28,0-.5.36-.55.33s0-.67.63-1.16c.3-.23.45-.94.14-.93s-1.16-1.07-.94-.9.75.39.94.08a7.66,7.66,0,0,0,0-2.36,1.16,1.16,0,0,0,.63.24,1.42,1.42,0,0,0,.36,0c-.13,2.85-.71,4-.38,4.08a9.91,9.91,0,0,0,2.08.41c.35,0,.61,0,.72,0-.2,0-.36.16-.56.21-.89.2-1.46.15-1.47.22a14.94,14.94,0,0,0,2.26.63c-.28,0-.52.38-1.2.16S28.66,40.41,28.49,40.52Z"/><path class="cls-2" d="M28,35.35c-.89-.7-.18-2.64-.53-2.64l0-.37c1,.12,2.54-.85,4-2.22l2.36.24c-.19.12-.25,2.77-1.81,4.34l0,0-1-.2s0,0,0,.06a1.41,1.41,0,0,1-.52-.45c-.11-.22-.47,1.26-1.51,1.45,0-.07,0-.14,0-.21l-1-.1Z"/><path class="cls-2" d="M32.06,34.72c-.23.19-.65.07-1-.14,0,0,0,0,0-.06Z"/><path class="cls-2" d="M33.54,39.36c.56.07,1.46.19,1.23.22s-.39.25-.77.31a3.65,3.65,0,0,1-2-.47s1.83,1.19,1.54,1.1-.64.15-1.1-.13-.43-.5-1.07-1c-.16-.12-.33-.24-.45-.19s-.11.43-.16.43a.62.62,0,0,1-.08-.67c.15-.3.51-.22.67-.51s-.06-.71-.06-.71-1.06-1-.88-.9.72.35.94.09-.1-.73-.3-2.36c.35.21.77.33,1,.14h0c.17.44-.27,2.76,0,3.74a.76.76,0,0,0,.36.39c.78.49,2.38-.17,2.1,0s-.14.22-.16.24a1.29,1.29,0,0,1-.83.25L33,39.3A2.29,2.29,0,0,0,33.54,39.36Z"/><path class="cls-2" d="M28.67,35.59a1.16,1.16,0,0,1-.63-.24v-.08l1,.1c0,.07,0,.14,0,.21A1.42,1.42,0,0,1,28.67,35.59Z"/><path class="cls-2" d="M28.17,28.3c.29-.34.6-.75,1-1.22C28.77,27.52,28.45,27.93,28.17,28.3Zm3-.73-2.49,2.54A13,13,0,0,0,31.13,27.57Zm5.06-16a.52.52,0,1,0-.52.52A.52.52,0,0,0,36.19,11.52ZM28.1,28.39c-1.42,1.73-1.91,1.89-2,1.84s-.07-.1-.07-.22a6.86,6.86,0,0,1,.23-1.25,15.36,15.36,0,0,1,2.25-5l-.89-1.06c.24,0-1-5.2,1.57-8.81a6.59,6.59,0,0,1,3.91-3,2.49,2.49,0,0,0,.46-.29c-.43.1-2.93-.79-1.59-2.16a4.06,4.06,0,0,0,.49-.64c.13.38.75.75.89.68s0-1.24,0-1.34c.2.29,1.1,1.43,1.31,1.34s0-1.24,0-1.42c.08.09.87,1.61,1.14,1.54s.21-1,.21-1.3v0c.06,0,.45,1.29.52,1.36.3.32.67-.34.61-.65s.66,1.06.85,1.26c.93,1-.07,1.92.29,2.44a6.34,6.34,0,0,1,.56,1c.11.23.07.32.11.37.52.67-1.14-.49-1.49-.31-.14.08,0,.41.06.51.16.37.47.46.55.63.22.44.17,1.41-1.06,2.32-.11.06-.1.15,0,.24,2.69,2.83,3,4.83,2.77,6.11-.51,3.14-1.73,5.28-5.78,7.85l-2.36-.24c-1.46,1.37-3,2.34-4,2.22a1,1,0,0,1-.67-.35,17.4,17.4,0,0,1,1.71-1.83c-1,.78-1.91,1.25-2.19,1.07S26.77,30.15,28.1,28.39Z"/><path class="cls-2" d="M15.79,26.83c-1.33-.11.53-4.22.54-4.5.06-1.14-1.86,3.44-2.68,3.5-1.61.11.32-4.72.64-4.94l0,0s0,0,0,0a0,0,0,0,0,0,0c-.2-.15-1-1-.4-1.6s-1.47,1.38-2.22.68c-.29-.27,2.27-3.06,2.22-3.12-.35-.39-5,5.17-5.07,5.13-1.48-1.39,2.4-9,9.76-9.33,4.24-.19,6.86,2.45,8.06,5.58a32.88,32.88,0,0,1,1,4.45l.89,1.06a15.36,15.36,0,0,0-2.25,5A6.86,6.86,0,0,0,26.05,30c0,.12,0,.2.07.22s.56-.11,2-1.84c-1.33,1.76-1.86,2.73-1.71,2.84s1.19-.29,2.19-1.07A17.4,17.4,0,0,0,26.87,32a1,1,0,0,0,.67.35l0,.37h-.06c-1.21.52-1.27-1.64-1.38-1.33-.82,2.36-1.33-2.76-1.79-1.6-.39,1-2.17-.05-1.33-2.17.22-.56-1.05,1.9-1.9,1.62-.51-.16.18-2.15.19-2.33,0-.55-1.47,1.28-1.79,1.71s-.3-2.32-1-1.79c-.08.07-.55,1.58-.95,1.55-.59-.06-.1-2.46-.24-2.69C16.92,25.11,15.94,26.84,15.79,26.83Z"/><circle class="cls-3" cx="35.67" cy="11.52" r="0.52"/><path class="cls-4" d="M28.1,28.39c-1.42,1.73-1.91,1.89-2,1.84s-.07-.1-.07-.22a6.86,6.86,0,0,1,.23-1.25,15.36,15.36,0,0,1,2.25-5"/><path class="cls-4" d="M29.13,27.08c-.36.47-.67.88-1,1.22"/><path class="cls-4" d="M28.64,30.11a13,13,0,0,0,2.49-2.54"/><path class="cls-4" d="M29.13,27.08c-.36.44-.68.85-1,1.22l-.07.09c-1.33,1.76-1.86,2.73-1.71,2.84s1.19-.29,2.19-1.07"/><path class="cls-4" d="M31.13,27.57l-2.49,2.54c-.05.05-.07.07-.06.05A17.4,17.4,0,0,0,26.87,32a1,1,0,0,0,.67.35c1,.12,2.54-.85,4-2.22,2.6-2.43,4.93-6.1,3.4-7.12"/></g></svg>